<svg width="36" height="36" viewBox="0 0 36 36" fill="none" xmlns="http://www.w3.org/2000/svg">
<path d="M23.2499 11.25L28.4999 6M31.4999 3L28.4999 6L31.4999 3ZM17.0849 17.415C17.8594 18.1792 18.4751 19.0891 18.8966 20.0922C19.318 21.0953 19.5368 22.1719 19.5405 23.2599C19.5441 24.348 19.3325 25.426 18.9178 26.4319C18.5031 27.4379 17.8935 28.3518 17.1241 29.1212C16.3548 29.8906 15.4408 30.5002 14.4349 30.9149C13.4289 31.3296 12.3509 31.5412 11.2629 31.5375C10.1748 31.5339 9.09824 31.3151 8.09511 30.8936C7.09198 30.4722 6.18212 29.8565 5.41792 29.082C3.91512 27.526 3.08357 25.4421 3.10236 23.2789C3.12116 21.1158 3.9888 19.0466 5.51842 17.517C7.04804 15.9874 9.11724 15.1197 11.2804 15.1009C13.4435 15.0821 15.5275 15.9137 17.0834 17.4165L17.0849 17.415ZM17.0849 17.415L23.2499 11.25L17.0849 17.415ZM23.2499 11.25L27.7499 15.75L32.9999 10.5L28.4999 6L23.2499 11.25Z" stroke="black" stroke-width="2" stroke-linecap="round" stroke-linejoin="round"/>
</svg>
